# xmcd CD database file
#
# Track frame offsets:
#	150
#	14776
#	35727
#	52338
#	72070
#	87852
#	106835
#	125318
#	145805
#	165483
#	178837
#	248827
#
# Disc length: 3714 seconds
#
# Revision: 0
# Processed by: cddbd v1.5.2PL0 Copyright (c) Steve Scherf et al.
# Submitted via: CDex 1.70beta2
#
DISCID=a70e800c
DTITLE=Loane - Le Lendemain
DYEAR=2011
DGENRE=Blues
TTITLE0=On S'enFout
TTITLE1=Boby
TTITLE2=Rien De Commun
TTITLE3=Parfum De Fille
TTITLE4=Save Us
TTITLE5=Adieu Tristes Sourires
TTITLE6=Le Goût Des Autres
TTITLE7=Sans
TTITLE8=Les Châteaux Hollandais
TTITLE9=Les Trains De Nuit
TTITLE10=L'Impossible Abîme
TTITLE11=(OpenDisc Data)
EXTD=YEAR: 2011
EXTT0=
EXTT1=
EXTT2=
EXTT3=
EXTT4=
EXTT5=
EXTT6=
EXTT7=
EXTT8=
EXTT9=
EXTT10=
EXTT11=
PLAYORDER=
